<mxfile host="app.diagrams.net" agent="Mozilla/5.0 (Macintosh; Intel Mac OS X 10.15; rv:130.0) Gecko/20100101 Firefox/130.0" version="24.7.14">
  <diagram name="Page-1" id="ZmXhCzCnHMO-EWCTXmm_">
    <mxGraphModel dx="2040" dy="1305" grid="1" gridSize="10" guides="1" tooltips="1" connect="1" arrows="1" fold="1" page="1" pageScale="1" pageWidth="1080" pageHeight="2340" math="0" shadow="0">
      <root>
        <mxCell id="0" />
        <mxCell id="1" parent="0" />
        <mxCell id="nCHdA4UjMcVazkx-fYS6-107" value="" style="rounded=0;whiteSpace=wrap;html=1;fillColor=#F8F9FA;" vertex="1" parent="1">
          <mxGeometry y="1770" width="1080" height="450" as="geometry" />
        </mxCell>
        <mxCell id="nCHdA4UjMcVazkx-fYS6-1" value="&lt;p style=&quot;line-height: 50%;&quot;&gt;&lt;/p&gt;&lt;h1&gt;&lt;font color=&quot;#ffffff&quot; style=&quot;font-size: 48px;&quot;&gt;Welcome to Sharath&#39;s Portfolio&lt;/font&gt;&lt;/h1&gt;&lt;div style=&quot;line-height: 50%;&quot;&gt;&lt;font color=&quot;#ffffff&quot;&gt;&lt;br&gt;&lt;/font&gt;&lt;/div&gt;        &lt;p&gt;&lt;font color=&quot;#ffffff&quot; style=&quot;font-size: 18px;&quot;&gt;Highlighting my journey from mobile app development to machine learning and beyond.&lt;/font&gt;&lt;/p&gt;&lt;p&gt;&lt;font color=&quot;#ffffff&quot; style=&quot;font-size: 18px;&quot;&gt;&lt;br&gt;&lt;/font&gt;&lt;/p&gt;&lt;p&gt;&lt;font color=&quot;#ffffff&quot; style=&quot;font-size: 18px;&quot;&gt;&lt;br&gt;&lt;/font&gt;&lt;/p&gt;&lt;p&gt;&lt;/p&gt;" style="text;html=1;align=center;verticalAlign=middle;whiteSpace=wrap;rounded=0;" vertex="1" parent="1">
          <mxGeometry y="100" width="1080" height="400" as="geometry" />
        </mxCell>
        <mxCell id="nCHdA4UjMcVazkx-fYS6-2" value="" style="group" vertex="1" connectable="0" parent="1">
          <mxGeometry width="1080" height="480" as="geometry" />
        </mxCell>
        <mxCell id="nCHdA4UjMcVazkx-fYS6-3" value="&lt;p style=&quot;line-height: 50%;&quot;&gt;&lt;/p&gt;&lt;h1&gt;&lt;font color=&quot;#ffffff&quot; style=&quot;font-size: 48px;&quot;&gt;Welcome to Sharath&#39;s Portfolio&lt;/font&gt;&lt;/h1&gt;&lt;div style=&quot;line-height: 50%;&quot;&gt;&lt;font color=&quot;#ffffff&quot;&gt;&lt;br&gt;&lt;/font&gt;&lt;/div&gt;        &lt;p&gt;&lt;font color=&quot;#ffffff&quot; style=&quot;font-size: 18px;&quot;&gt;Highlighting my journey from mobile app development to machine learning and beyond.&lt;/font&gt;&lt;/p&gt;&lt;p&gt;&lt;font color=&quot;#ffffff&quot; style=&quot;font-size: 18px;&quot;&gt;&lt;br&gt;&lt;/font&gt;&lt;/p&gt;&lt;p&gt;&lt;font color=&quot;#ffffff&quot; style=&quot;font-size: 18px;&quot;&gt;&lt;br&gt;&lt;/font&gt;&lt;/p&gt;&lt;p&gt;&lt;br&gt;&lt;/p&gt;" style="rounded=0;whiteSpace=wrap;html=1;fillColor=#007BFF;opacity=80;" vertex="1" parent="nCHdA4UjMcVazkx-fYS6-2">
          <mxGeometry y="100" width="1080" height="380" as="geometry" />
        </mxCell>
        <mxCell id="nCHdA4UjMcVazkx-fYS6-4" value="" style="rounded=1;whiteSpace=wrap;html=1;" vertex="1" parent="nCHdA4UjMcVazkx-fYS6-2">
          <mxGeometry x="432" y="380" width="216" height="40" as="geometry" />
        </mxCell>
        <mxCell id="nCHdA4UjMcVazkx-fYS6-5" value="" style="rounded=0;whiteSpace=wrap;html=1;fillColor=#007bff;fontColor=#ffffff;" vertex="1" parent="nCHdA4UjMcVazkx-fYS6-2">
          <mxGeometry width="1080" height="100" as="geometry" />
        </mxCell>
        <mxCell id="nCHdA4UjMcVazkx-fYS6-6" value="&lt;div&gt;&lt;font size=&quot;1&quot;&gt;&lt;b style=&quot;font-size: 32px;&quot;&gt;SHARATH&#39;S PORTFOLIO&lt;/b&gt;&lt;/font&gt;&lt;/div&gt;&lt;div style=&quot;line-height: 50%;&quot;&gt;&lt;font size=&quot;1&quot;&gt;&lt;b style=&quot;font-size: 32px;&quot;&gt;&lt;br&gt;&lt;/b&gt;&lt;/font&gt;&lt;/div&gt;&lt;div style=&quot;font-size: 18px;&quot;&gt;&lt;font style=&quot;font-size: 18px;&quot;&gt;&lt;b style=&quot;&quot;&gt;Home &lt;span style=&quot;white-space: pre;&quot;&gt;&#x9;&lt;/span&gt;&lt;/b&gt;&lt;b&gt;About &lt;span style=&quot;white-space: pre;&quot;&gt;&#x9;&lt;/span&gt;Projects &lt;span style=&quot;white-space: pre;&quot;&gt;&#x9;&lt;/span&gt;Certifications &amp;amp; Experience &lt;span style=&quot;white-space: pre;&quot;&gt;&#x9;&lt;/span&gt;Education &lt;span style=&quot;white-space: pre;&quot;&gt;&#x9;&lt;/span&gt;Blogs &amp;amp; Contact&lt;br&gt;&lt;/b&gt;&lt;/font&gt;&lt;/div&gt;" style="text;html=1;align=center;verticalAlign=middle;whiteSpace=wrap;rounded=0;strokeColor=none;fontColor=#FFFFFF;" vertex="1" parent="nCHdA4UjMcVazkx-fYS6-2">
          <mxGeometry width="1080" height="100" as="geometry" />
        </mxCell>
        <mxCell id="nCHdA4UjMcVazkx-fYS6-7" value="&lt;b&gt;&lt;font style=&quot;font-size: 20px;&quot;&gt;Explore My Projects&lt;/font&gt;&lt;/b&gt;" style="text;html=1;align=center;verticalAlign=middle;whiteSpace=wrap;rounded=0;fontColor=#007bff;" vertex="1" parent="nCHdA4UjMcVazkx-fYS6-2">
          <mxGeometry x="432" y="380" width="216" height="40" as="geometry" />
        </mxCell>
        <mxCell id="nCHdA4UjMcVazkx-fYS6-26" value="" style="group" vertex="1" connectable="0" parent="1">
          <mxGeometry y="480" width="1080" height="400" as="geometry" />
        </mxCell>
        <mxCell id="nCHdA4UjMcVazkx-fYS6-27" value="" style="rounded=0;whiteSpace=wrap;html=1;" vertex="1" parent="nCHdA4UjMcVazkx-fYS6-26">
          <mxGeometry width="1080" height="400" as="geometry" />
        </mxCell>
        <mxCell id="nCHdA4UjMcVazkx-fYS6-28" value="" style="group" vertex="1" connectable="0" parent="nCHdA4UjMcVazkx-fYS6-26">
          <mxGeometry x="72" y="20" width="936" height="320" as="geometry" />
        </mxCell>
        <mxCell id="nCHdA4UjMcVazkx-fYS6-29" value="" style="rounded=1;whiteSpace=wrap;html=1;fillColor=#f4f4f4;" vertex="1" parent="nCHdA4UjMcVazkx-fYS6-28">
          <mxGeometry x="540" y="140" width="396" height="40" as="geometry" />
        </mxCell>
        <mxCell id="nCHdA4UjMcVazkx-fYS6-30" value="" style="rounded=1;whiteSpace=wrap;html=1;fillColor=#f4f4f4;" vertex="1" parent="nCHdA4UjMcVazkx-fYS6-28">
          <mxGeometry x="540" y="260" width="396" height="40" as="geometry" />
        </mxCell>
        <mxCell id="nCHdA4UjMcVazkx-fYS6-31" value="&lt;font style=&quot;font-size: 16px;&quot;&gt;Python&lt;/font&gt;" style="text;html=1;align=center;verticalAlign=middle;whiteSpace=wrap;rounded=0;" vertex="1" parent="nCHdA4UjMcVazkx-fYS6-28">
          <mxGeometry x="540" y="260" width="396" height="40" as="geometry" />
        </mxCell>
        <mxCell id="nCHdA4UjMcVazkx-fYS6-32" value="&lt;font style=&quot;font-size: 16px;&quot;&gt;Python&lt;/font&gt;" style="text;html=1;align=center;verticalAlign=middle;whiteSpace=wrap;rounded=0;" vertex="1" parent="nCHdA4UjMcVazkx-fYS6-28">
          <mxGeometry x="540" y="140" width="396" height="40" as="geometry" />
        </mxCell>
        <mxCell id="nCHdA4UjMcVazkx-fYS6-33" value="" style="rounded=1;whiteSpace=wrap;html=1;fillColor=#f4f4f4;" vertex="1" parent="nCHdA4UjMcVazkx-fYS6-28">
          <mxGeometry x="540" y="200" width="396" height="40" as="geometry" />
        </mxCell>
        <mxCell id="nCHdA4UjMcVazkx-fYS6-34" value="&lt;font style=&quot;font-size: 16px;&quot;&gt;Python&lt;/font&gt;" style="text;html=1;align=center;verticalAlign=middle;whiteSpace=wrap;rounded=1;" vertex="1" parent="nCHdA4UjMcVazkx-fYS6-28">
          <mxGeometry x="540" y="200" width="396" height="40" as="geometry" />
        </mxCell>
        <mxCell id="nCHdA4UjMcVazkx-fYS6-35" value="" style="rounded=1;whiteSpace=wrap;html=1;fillColor=#f4f4f4;" vertex="1" parent="nCHdA4UjMcVazkx-fYS6-28">
          <mxGeometry x="540" y="80" width="396" height="40" as="geometry" />
        </mxCell>
        <mxCell id="nCHdA4UjMcVazkx-fYS6-36" value="&lt;font style=&quot;font-size: 16px;&quot;&gt;Python&lt;/font&gt;" style="text;html=1;align=center;verticalAlign=middle;whiteSpace=wrap;rounded=1;labelBackgroundColor=none;labelBorderColor=none;" vertex="1" parent="nCHdA4UjMcVazkx-fYS6-28">
          <mxGeometry x="540" y="80" width="396" height="40" as="geometry" />
        </mxCell>
        <mxCell id="nCHdA4UjMcVazkx-fYS6-37" value="" style="html=1;verticalLabelPosition=bottom;align=center;labelBackgroundColor=#ffffff;verticalAlign=top;strokeWidth=2;strokeColor=#0080F0;shadow=0;dashed=0;shape=mxgraph.ios7.icons.user;" vertex="1" parent="nCHdA4UjMcVazkx-fYS6-28">
          <mxGeometry x="131.4" y="77.41935483870964" width="135" height="153.84615384615384" as="geometry" />
        </mxCell>
        <mxCell id="nCHdA4UjMcVazkx-fYS6-38" value="&lt;font color=&quot;#007bff&quot;&gt;&lt;b style=&quot;font-size: 24px;&quot;&gt;About Me&lt;br&gt;&lt;/b&gt;&lt;/font&gt;" style="text;html=1;align=center;verticalAlign=middle;whiteSpace=wrap;rounded=0;" vertex="1" parent="nCHdA4UjMcVazkx-fYS6-28">
          <mxGeometry x="72" width="252" height="61.53846153846153" as="geometry" />
        </mxCell>
        <mxCell id="nCHdA4UjMcVazkx-fYS6-39" value="&lt;font style=&quot;font-size: 20px;&quot;&gt;&lt;b&gt;&lt;font style=&quot;font-size: 20px;&quot;&gt;Sharath Chandra&lt;/font&gt;&lt;/b&gt;&lt;/font&gt;" style="text;html=1;align=center;verticalAlign=middle;whiteSpace=wrap;rounded=0;" vertex="1" parent="nCHdA4UjMcVazkx-fYS6-28">
          <mxGeometry x="72" y="240" width="252" height="38.71" as="geometry" />
        </mxCell>
        <mxCell id="nCHdA4UjMcVazkx-fYS6-40" value="&lt;font style=&quot;font-size: 16px;&quot;&gt;I&#39;m a Computer Science Engineer with experience in machine learning and mobile app development.&lt;/font&gt;" style="text;html=1;align=center;verticalAlign=middle;whiteSpace=wrap;rounded=0;" vertex="1" parent="nCHdA4UjMcVazkx-fYS6-28">
          <mxGeometry y="280" width="396" height="40" as="geometry" />
        </mxCell>
        <mxCell id="nCHdA4UjMcVazkx-fYS6-41" value="&lt;font color=&quot;#007bff&quot; style=&quot;font-size: 24px;&quot;&gt;&lt;b&gt;Skills&lt;/b&gt;&lt;/font&gt;" style="text;html=1;align=center;verticalAlign=middle;whiteSpace=wrap;rounded=0;" vertex="1" parent="nCHdA4UjMcVazkx-fYS6-28">
          <mxGeometry x="576" width="324" height="61.53846153846153" as="geometry" />
        </mxCell>
        <mxCell id="nCHdA4UjMcVazkx-fYS6-42" value="" style="group" vertex="1" connectable="0" parent="1">
          <mxGeometry y="880" width="1080" height="440" as="geometry" />
        </mxCell>
        <mxCell id="nCHdA4UjMcVazkx-fYS6-43" value="" style="rounded=0;whiteSpace=wrap;html=1;fillColor=#f8f9fa;" vertex="1" parent="nCHdA4UjMcVazkx-fYS6-42">
          <mxGeometry width="1080" height="440" as="geometry" />
        </mxCell>
        <mxCell id="nCHdA4UjMcVazkx-fYS6-44" value="" style="group" vertex="1" connectable="0" parent="nCHdA4UjMcVazkx-fYS6-42">
          <mxGeometry y="40" width="1080" height="360" as="geometry" />
        </mxCell>
        <mxCell id="nCHdA4UjMcVazkx-fYS6-45" value="" style="group" vertex="1" connectable="0" parent="nCHdA4UjMcVazkx-fYS6-44">
          <mxGeometry x="414" y="67.5" width="252" height="275" as="geometry" />
        </mxCell>
        <mxCell id="nCHdA4UjMcVazkx-fYS6-46" value="" style="rounded=1;whiteSpace=wrap;html=1;arcSize=6;" vertex="1" parent="nCHdA4UjMcVazkx-fYS6-45">
          <mxGeometry width="252" height="275" as="geometry" />
        </mxCell>
        <mxCell id="nCHdA4UjMcVazkx-fYS6-47" value="" style="shape=image;html=1;verticalAlign=top;verticalLabelPosition=bottom;labelBackgroundColor=#ffffff;imageAspect=0;aspect=fixed;image=https://cdn2.iconfinder.com/data/icons/crystalproject/128x128/mimetypes/image.png" vertex="1" parent="nCHdA4UjMcVazkx-fYS6-45">
          <mxGeometry x="58.5" width="135" height="135" as="geometry" />
        </mxCell>
        <mxCell id="nCHdA4UjMcVazkx-fYS6-48" value="&lt;font color=&quot;#007bff&quot; style=&quot;font-size: 20px;&quot;&gt;&lt;b&gt;Project Name&lt;br&gt;&lt;/b&gt;&lt;/font&gt;" style="text;html=1;align=center;verticalAlign=middle;whiteSpace=wrap;rounded=0;" vertex="1" parent="nCHdA4UjMcVazkx-fYS6-45">
          <mxGeometry x="36" y="157.5" width="180" height="33.75" as="geometry" />
        </mxCell>
        <mxCell id="nCHdA4UjMcVazkx-fYS6-49" value="&lt;font style=&quot;font-size: 16px;&quot;&gt;Used machine learning techniques to recognize human activity via smartphone sensors.&lt;/font&gt;" style="text;html=1;align=center;verticalAlign=middle;whiteSpace=wrap;rounded=0;" vertex="1" parent="nCHdA4UjMcVazkx-fYS6-45">
          <mxGeometry x="5" y="202.5" width="242" height="60" as="geometry" />
        </mxCell>
        <mxCell id="nCHdA4UjMcVazkx-fYS6-50" value="" style="group;rounded=0;" vertex="1" connectable="0" parent="nCHdA4UjMcVazkx-fYS6-44">
          <mxGeometry x="81" y="67.5" width="252" height="262.5" as="geometry" />
        </mxCell>
        <mxCell id="nCHdA4UjMcVazkx-fYS6-51" value="" style="rounded=1;whiteSpace=wrap;html=1;glass=0;labelPadding=0;arcSize=4;" vertex="1" parent="nCHdA4UjMcVazkx-fYS6-50">
          <mxGeometry x="-0.9" width="252" height="275" as="geometry" />
        </mxCell>
        <mxCell id="nCHdA4UjMcVazkx-fYS6-52" value="" style="shape=image;html=1;verticalAlign=top;verticalLabelPosition=bottom;labelBackgroundColor=#ffffff;imageAspect=0;aspect=fixed;image=https://cdn2.iconfinder.com/data/icons/crystalproject/128x128/mimetypes/image.png" vertex="1" parent="nCHdA4UjMcVazkx-fYS6-50">
          <mxGeometry x="57.6" width="135" height="135" as="geometry" />
        </mxCell>
        <mxCell id="nCHdA4UjMcVazkx-fYS6-53" value="&lt;font color=&quot;#007bff&quot; style=&quot;font-size: 20px;&quot;&gt;&lt;b&gt;Project Name&lt;br&gt;&lt;/b&gt;&lt;/font&gt;" style="text;html=1;align=center;verticalAlign=middle;whiteSpace=wrap;rounded=0;" vertex="1" parent="nCHdA4UjMcVazkx-fYS6-50">
          <mxGeometry x="36" y="157.5" width="180" height="33.75" as="geometry" />
        </mxCell>
        <mxCell id="nCHdA4UjMcVazkx-fYS6-54" value="&lt;font style=&quot;font-size: 16px;&quot;&gt;Used machine learning techniques to recognize human activity via smartphone sensors.&lt;/font&gt;" style="text;html=1;align=center;verticalAlign=middle;whiteSpace=wrap;rounded=0;" vertex="1" parent="nCHdA4UjMcVazkx-fYS6-50">
          <mxGeometry y="202.5" width="242" height="60" as="geometry" />
        </mxCell>
        <mxCell id="nCHdA4UjMcVazkx-fYS6-55" value="&lt;font color=&quot;#007bff&quot; style=&quot;font-size: 24px;&quot;&gt;&lt;b&gt;Projects&lt;/b&gt;&lt;/font&gt;" style="text;html=1;align=center;verticalAlign=middle;whiteSpace=wrap;rounded=0;" vertex="1" parent="nCHdA4UjMcVazkx-fYS6-44">
          <mxGeometry width="1080" height="33.75" as="geometry" />
        </mxCell>
        <mxCell id="nCHdA4UjMcVazkx-fYS6-56" value="" style="group" vertex="1" connectable="0" parent="nCHdA4UjMcVazkx-fYS6-44">
          <mxGeometry x="747" y="67.5" width="252" height="275" as="geometry" />
        </mxCell>
        <mxCell id="nCHdA4UjMcVazkx-fYS6-57" value="" style="rounded=1;whiteSpace=wrap;html=1;arcSize=6;" vertex="1" parent="nCHdA4UjMcVazkx-fYS6-56">
          <mxGeometry width="252" height="275" as="geometry" />
        </mxCell>
        <mxCell id="nCHdA4UjMcVazkx-fYS6-58" value="" style="shape=image;html=1;verticalAlign=top;verticalLabelPosition=bottom;labelBackgroundColor=#ffffff;imageAspect=0;aspect=fixed;image=https://cdn2.iconfinder.com/data/icons/crystalproject/128x128/mimetypes/image.png" vertex="1" parent="nCHdA4UjMcVazkx-fYS6-56">
          <mxGeometry x="58.5" width="135" height="135" as="geometry" />
        </mxCell>
        <mxCell id="nCHdA4UjMcVazkx-fYS6-59" value="&lt;font color=&quot;#007bff&quot; style=&quot;font-size: 20px;&quot;&gt;&lt;b&gt;Project Name&lt;br&gt;&lt;/b&gt;&lt;/font&gt;" style="text;html=1;align=center;verticalAlign=middle;whiteSpace=wrap;rounded=0;" vertex="1" parent="nCHdA4UjMcVazkx-fYS6-56">
          <mxGeometry x="36" y="157.5" width="180" height="33.75" as="geometry" />
        </mxCell>
        <mxCell id="nCHdA4UjMcVazkx-fYS6-60" value="&lt;font style=&quot;font-size: 16px;&quot;&gt;Used machine learning techniques to recognize human activity via smartphone sensors.&lt;/font&gt;" style="text;html=1;align=center;verticalAlign=middle;whiteSpace=wrap;rounded=0;" vertex="1" parent="nCHdA4UjMcVazkx-fYS6-56">
          <mxGeometry x="5" y="202.5" width="242" height="60" as="geometry" />
        </mxCell>
        <mxCell id="nCHdA4UjMcVazkx-fYS6-61" value="" style="group" vertex="1" connectable="0" parent="1">
          <mxGeometry y="1360" width="1080" height="820" as="geometry" />
        </mxCell>
        <mxCell id="nCHdA4UjMcVazkx-fYS6-62" value="" style="rounded=0;whiteSpace=wrap;html=1;" vertex="1" parent="nCHdA4UjMcVazkx-fYS6-61">
          <mxGeometry y="-40" width="1080" height="450" as="geometry" />
        </mxCell>
        <mxCell id="nCHdA4UjMcVazkx-fYS6-68" value="&lt;font color=&quot;#007bff&quot; style=&quot;font-size: 24px;&quot;&gt;&lt;b&gt;Certifications&lt;/b&gt;&lt;br&gt;&lt;/font&gt;" style="text;html=1;align=center;verticalAlign=middle;whiteSpace=wrap;rounded=0;" vertex="1" parent="nCHdA4UjMcVazkx-fYS6-61">
          <mxGeometry width="1080" height="40" as="geometry" />
        </mxCell>
        <mxCell id="nCHdA4UjMcVazkx-fYS6-72" value="" style="group" vertex="1" connectable="0" parent="nCHdA4UjMcVazkx-fYS6-61">
          <mxGeometry y="440" width="1080" height="380" as="geometry" />
        </mxCell>
        <mxCell id="nCHdA4UjMcVazkx-fYS6-77" value="&lt;font color=&quot;#007bff&quot; style=&quot;font-size: 24px;&quot;&gt;&lt;b&gt;Experience&lt;br&gt;&lt;/b&gt;&lt;/font&gt;" style="text;html=1;align=center;verticalAlign=middle;whiteSpace=wrap;rounded=0;" vertex="1" parent="nCHdA4UjMcVazkx-fYS6-72">
          <mxGeometry width="1080" height="40" as="geometry" />
        </mxCell>
        <mxCell id="nCHdA4UjMcVazkx-fYS6-93" value="" style="group" vertex="1" connectable="0" parent="nCHdA4UjMcVazkx-fYS6-72">
          <mxGeometry x="190" y="70" width="700" height="60" as="geometry" />
        </mxCell>
        <mxCell id="nCHdA4UjMcVazkx-fYS6-76" value="" style="rounded=1;whiteSpace=wrap;html=1;fillColor=#f4f4f4;" vertex="1" parent="nCHdA4UjMcVazkx-fYS6-93">
          <mxGeometry width="700" height="60" as="geometry" />
        </mxCell>
        <mxCell id="nCHdA4UjMcVazkx-fYS6-78" value="&lt;font style=&quot;font-size: 20px;&quot;&gt;Worked on an E-commerce application project using Flutter at Flipkart Grid.&lt;/font&gt;" style="text;html=1;align=center;verticalAlign=middle;whiteSpace=wrap;rounded=0;" vertex="1" parent="nCHdA4UjMcVazkx-fYS6-93">
          <mxGeometry width="700" height="60" as="geometry" />
        </mxCell>
        <mxCell id="nCHdA4UjMcVazkx-fYS6-100" value="" style="group" vertex="1" connectable="0" parent="nCHdA4UjMcVazkx-fYS6-72">
          <mxGeometry x="190" y="230" width="700" height="60" as="geometry" />
        </mxCell>
        <mxCell id="nCHdA4UjMcVazkx-fYS6-101" value="" style="rounded=1;whiteSpace=wrap;html=1;fillColor=#f4f4f4;" vertex="1" parent="nCHdA4UjMcVazkx-fYS6-100">
          <mxGeometry width="700" height="60" as="geometry" />
        </mxCell>
        <mxCell id="nCHdA4UjMcVazkx-fYS6-102" value="&lt;font style=&quot;font-size: 20px;&quot;&gt;Worked on an E-commerce application project using Flutter at Flipkart Grid.&lt;/font&gt;" style="text;html=1;align=center;verticalAlign=middle;whiteSpace=wrap;rounded=0;" vertex="1" parent="nCHdA4UjMcVazkx-fYS6-100">
          <mxGeometry width="700" height="60" as="geometry" />
        </mxCell>
        <mxCell id="nCHdA4UjMcVazkx-fYS6-97" value="" style="group" vertex="1" connectable="0" parent="nCHdA4UjMcVazkx-fYS6-72">
          <mxGeometry x="190" y="150" width="700" height="60" as="geometry" />
        </mxCell>
        <mxCell id="nCHdA4UjMcVazkx-fYS6-98" value="" style="rounded=1;whiteSpace=wrap;html=1;fillColor=#f4f4f4;" vertex="1" parent="nCHdA4UjMcVazkx-fYS6-97">
          <mxGeometry width="700" height="60" as="geometry" />
        </mxCell>
        <mxCell id="nCHdA4UjMcVazkx-fYS6-99" value="&lt;font style=&quot;font-size: 20px;&quot;&gt;Worked on an E-commerce application project using Flutter at Flipkart Grid.&lt;/font&gt;" style="text;html=1;align=center;verticalAlign=middle;whiteSpace=wrap;rounded=0;" vertex="1" parent="nCHdA4UjMcVazkx-fYS6-97">
          <mxGeometry width="700" height="60" as="geometry" />
        </mxCell>
        <mxCell id="nCHdA4UjMcVazkx-fYS6-94" value="" style="group" vertex="1" connectable="0" parent="nCHdA4UjMcVazkx-fYS6-72">
          <mxGeometry x="190" y="310" width="700" height="60" as="geometry" />
        </mxCell>
        <mxCell id="nCHdA4UjMcVazkx-fYS6-95" value="" style="rounded=1;whiteSpace=wrap;html=1;fillColor=#f4f4f4;" vertex="1" parent="nCHdA4UjMcVazkx-fYS6-94">
          <mxGeometry width="700" height="60" as="geometry" />
        </mxCell>
        <mxCell id="nCHdA4UjMcVazkx-fYS6-96" value="&lt;font style=&quot;font-size: 20px;&quot;&gt;Worked on an E-commerce application project using Flutter at Flipkart Grid.&lt;/font&gt;" style="text;html=1;align=center;verticalAlign=middle;whiteSpace=wrap;rounded=0;" vertex="1" parent="nCHdA4UjMcVazkx-fYS6-94">
          <mxGeometry width="700" height="60" as="geometry" />
        </mxCell>
        <mxCell id="nCHdA4UjMcVazkx-fYS6-83" value="" style="group" vertex="1" connectable="0" parent="nCHdA4UjMcVazkx-fYS6-61">
          <mxGeometry x="190" y="70" width="700" height="60" as="geometry" />
        </mxCell>
        <mxCell id="nCHdA4UjMcVazkx-fYS6-63" value="" style="rounded=1;whiteSpace=wrap;html=1;fillColor=#f4f4f4;" vertex="1" parent="nCHdA4UjMcVazkx-fYS6-83">
          <mxGeometry width="699.9963855608319" height="60" as="geometry" />
        </mxCell>
        <mxCell id="nCHdA4UjMcVazkx-fYS6-64" value="&lt;div align=&quot;center&quot;&gt;&lt;font style=&quot;font-size: 20px;&quot;&gt;Machine Learning Training at SmartBridge&lt;/font&gt;&lt;/div&gt;" style="text;html=1;align=center;verticalAlign=middle;whiteSpace=wrap;rounded=0;" vertex="1" parent="nCHdA4UjMcVazkx-fYS6-83">
          <mxGeometry x="0.0036144391681071264" width="699.9963855608319" height="60" as="geometry" />
        </mxCell>
        <mxCell id="nCHdA4UjMcVazkx-fYS6-84" value="" style="group" vertex="1" connectable="0" parent="nCHdA4UjMcVazkx-fYS6-61">
          <mxGeometry x="190" y="150" width="700" height="60" as="geometry" />
        </mxCell>
        <mxCell id="nCHdA4UjMcVazkx-fYS6-85" value="" style="rounded=1;whiteSpace=wrap;html=1;fillColor=#f4f4f4;" vertex="1" parent="nCHdA4UjMcVazkx-fYS6-84">
          <mxGeometry width="699.9963855608319" height="60" as="geometry" />
        </mxCell>
        <mxCell id="nCHdA4UjMcVazkx-fYS6-86" value="&lt;div align=&quot;center&quot;&gt;&lt;font style=&quot;font-size: 20px;&quot;&gt;Machine Learning Training at SmartBridge&lt;/font&gt;&lt;/div&gt;" style="text;html=1;align=center;verticalAlign=middle;whiteSpace=wrap;rounded=0;" vertex="1" parent="nCHdA4UjMcVazkx-fYS6-84">
          <mxGeometry x="0.0036144391681071264" width="699.9963855608319" height="60" as="geometry" />
        </mxCell>
        <mxCell id="nCHdA4UjMcVazkx-fYS6-90" value="" style="group" vertex="1" connectable="0" parent="nCHdA4UjMcVazkx-fYS6-61">
          <mxGeometry x="190" y="310" width="700" height="60" as="geometry" />
        </mxCell>
        <mxCell id="nCHdA4UjMcVazkx-fYS6-91" value="" style="rounded=1;whiteSpace=wrap;html=1;fillColor=#f4f4f4;" vertex="1" parent="nCHdA4UjMcVazkx-fYS6-90">
          <mxGeometry width="699.9963855608319" height="60" as="geometry" />
        </mxCell>
        <mxCell id="nCHdA4UjMcVazkx-fYS6-92" value="&lt;div align=&quot;center&quot;&gt;&lt;font style=&quot;font-size: 20px;&quot;&gt;Machine Learning Training at SmartBridge&lt;/font&gt;&lt;/div&gt;" style="text;html=1;align=center;verticalAlign=middle;whiteSpace=wrap;rounded=0;" vertex="1" parent="nCHdA4UjMcVazkx-fYS6-90">
          <mxGeometry x="0.0036144391681071264" width="699.9963855608319" height="60" as="geometry" />
        </mxCell>
        <mxCell id="nCHdA4UjMcVazkx-fYS6-87" value="" style="group" vertex="1" connectable="0" parent="nCHdA4UjMcVazkx-fYS6-61">
          <mxGeometry x="190" y="230" width="700" height="60" as="geometry" />
        </mxCell>
        <mxCell id="nCHdA4UjMcVazkx-fYS6-88" value="" style="rounded=1;whiteSpace=wrap;html=1;fillColor=#f4f4f4;" vertex="1" parent="nCHdA4UjMcVazkx-fYS6-87">
          <mxGeometry width="699.9963855608319" height="60" as="geometry" />
        </mxCell>
        <mxCell id="nCHdA4UjMcVazkx-fYS6-89" value="&lt;div align=&quot;center&quot;&gt;&lt;font style=&quot;font-size: 20px;&quot;&gt;Machine Learning Training at SmartBridge&lt;/font&gt;&lt;/div&gt;" style="text;html=1;align=center;verticalAlign=middle;whiteSpace=wrap;rounded=0;" vertex="1" parent="nCHdA4UjMcVazkx-fYS6-87">
          <mxGeometry x="0.0036144391681071264" width="699.9963855608319" height="60" as="geometry" />
        </mxCell>
        <mxCell id="nCHdA4UjMcVazkx-fYS6-114" value="" style="group" vertex="1" connectable="0" parent="1">
          <mxGeometry y="2200" width="1080" height="260" as="geometry" />
        </mxCell>
        <mxCell id="nCHdA4UjMcVazkx-fYS6-115" value="" style="rounded=0;whiteSpace=wrap;html=1;fillColor=#FFFFFF;" vertex="1" parent="nCHdA4UjMcVazkx-fYS6-114">
          <mxGeometry width="1080" height="260" as="geometry" />
        </mxCell>
        <mxCell id="nCHdA4UjMcVazkx-fYS6-116" value="" style="group;rounded=0;shadow=1;" vertex="1" connectable="0" parent="nCHdA4UjMcVazkx-fYS6-114">
          <mxGeometry x="81" y="90" width="252" height="125.71000000000002" as="geometry" />
        </mxCell>
        <mxCell id="nCHdA4UjMcVazkx-fYS6-117" value="" style="rounded=1;whiteSpace=wrap;html=1;glass=0;labelPadding=0;arcSize=4;fillColor=#F8F9FA;" vertex="1" parent="nCHdA4UjMcVazkx-fYS6-116">
          <mxGeometry width="252" height="120" as="geometry" />
        </mxCell>
        <mxCell id="nCHdA4UjMcVazkx-fYS6-118" value="&lt;font color=&quot;#007bff&quot;&gt;&lt;b style=&quot;font-size: 20px;&quot;&gt;&lt;font style=&quot;font-size: 20px;&quot;&gt;2023 - 2025&lt;br&gt;&lt;/font&gt;&lt;/b&gt;&lt;/font&gt;" style="text;html=1;align=center;verticalAlign=middle;whiteSpace=wrap;rounded=0;" vertex="1" parent="nCHdA4UjMcVazkx-fYS6-116">
          <mxGeometry y="10" width="252" height="30" as="geometry" />
        </mxCell>
        <mxCell id="nCHdA4UjMcVazkx-fYS6-119" value="&lt;font style=&quot;font-size: 16px;&quot;&gt;Master of Science in Artificial Intelligence (Expected).&lt;/font&gt;" style="text;html=1;align=center;verticalAlign=middle;whiteSpace=wrap;rounded=0;" vertex="1" parent="nCHdA4UjMcVazkx-fYS6-116">
          <mxGeometry y="30" width="252" height="80" as="geometry" />
        </mxCell>
        <mxCell id="nCHdA4UjMcVazkx-fYS6-120" value="&lt;font color=&quot;#007bff&quot; style=&quot;font-size: 24px;&quot;&gt;&lt;b&gt;Education&lt;/b&gt;&lt;/font&gt;" style="text;html=1;align=center;verticalAlign=middle;whiteSpace=wrap;rounded=0;" vertex="1" parent="nCHdA4UjMcVazkx-fYS6-114">
          <mxGeometry y="40" width="1053.658536585366" height="30.000000000000007" as="geometry" />
        </mxCell>
        <mxCell id="nCHdA4UjMcVazkx-fYS6-121" value="" style="rounded=1;whiteSpace=wrap;html=1;glass=0;labelPadding=0;arcSize=4;fillColor=#F8F9FA;" vertex="1" parent="nCHdA4UjMcVazkx-fYS6-114">
          <mxGeometry x="747" y="90" width="252" height="120" as="geometry" />
        </mxCell>
        <mxCell id="nCHdA4UjMcVazkx-fYS6-122" value="&lt;font style=&quot;font-size: 16px;&quot;&gt;Master of Science in Artificial Intelligence (Expected).&lt;/font&gt;" style="text;html=1;align=center;verticalAlign=middle;whiteSpace=wrap;rounded=0;" vertex="1" parent="nCHdA4UjMcVazkx-fYS6-114">
          <mxGeometry x="747" y="119" width="252" height="77.33333333333334" as="geometry" />
        </mxCell>
        <mxCell id="nCHdA4UjMcVazkx-fYS6-123" value="&lt;font color=&quot;#007bff&quot;&gt;&lt;b style=&quot;font-size: 20px;&quot;&gt;&lt;font style=&quot;font-size: 20px;&quot;&gt;2017 -2019&lt;br&gt;&lt;/font&gt;&lt;/b&gt;&lt;/font&gt;" style="text;html=1;align=center;verticalAlign=middle;whiteSpace=wrap;rounded=0;" vertex="1" parent="nCHdA4UjMcVazkx-fYS6-114">
          <mxGeometry x="747" y="99.66666666666666" width="252" height="29.000000000000007" as="geometry" />
        </mxCell>
        <mxCell id="nCHdA4UjMcVazkx-fYS6-124" value="" style="rounded=1;whiteSpace=wrap;html=1;glass=0;labelPadding=0;arcSize=4;fillColor=#F8F9FA;" vertex="1" parent="nCHdA4UjMcVazkx-fYS6-114">
          <mxGeometry x="413.1219512195122" y="90" width="252" height="120" as="geometry" />
        </mxCell>
        <mxCell id="nCHdA4UjMcVazkx-fYS6-125" value="&lt;font style=&quot;font-size: 16px;&quot;&gt;Master of Science in Artificial Intelligence (Expected).&lt;/font&gt;" style="text;html=1;align=center;verticalAlign=middle;whiteSpace=wrap;rounded=0;" vertex="1" parent="nCHdA4UjMcVazkx-fYS6-114">
          <mxGeometry x="414" y="120" width="252" height="80" as="geometry" />
        </mxCell>
        <mxCell id="nCHdA4UjMcVazkx-fYS6-126" value="&lt;font color=&quot;#007bff&quot;&gt;&lt;b style=&quot;font-size: 20px;&quot;&gt;&lt;font style=&quot;font-size: 20px;&quot;&gt;2019 - 2023&lt;br&gt;&lt;/font&gt;&lt;/b&gt;&lt;/font&gt;" style="text;html=1;align=center;verticalAlign=middle;whiteSpace=wrap;rounded=0;" vertex="1" parent="nCHdA4UjMcVazkx-fYS6-114">
          <mxGeometry x="414" y="100" width="252" height="30" as="geometry" />
        </mxCell>
        <mxCell id="nCHdA4UjMcVazkx-fYS6-140" value="" style="group" vertex="1" connectable="0" parent="1">
          <mxGeometry y="2500" width="1080" height="360" as="geometry" />
        </mxCell>
        <mxCell id="nCHdA4UjMcVazkx-fYS6-146" value="" style="rounded=0;whiteSpace=wrap;html=1;fillColor=#F8F9FA;" vertex="1" parent="nCHdA4UjMcVazkx-fYS6-140">
          <mxGeometry y="-40" width="1080" height="440" as="geometry" />
        </mxCell>
        <mxCell id="nCHdA4UjMcVazkx-fYS6-141" value="" style="rounded=1;whiteSpace=wrap;html=1;fillColor=#FFFFFF;arcSize=4;" vertex="1" parent="nCHdA4UjMcVazkx-fYS6-140">
          <mxGeometry x="144" y="220" width="792" height="140" as="geometry" />
        </mxCell>
        <mxCell id="nCHdA4UjMcVazkx-fYS6-142" value="" style="rounded=1;whiteSpace=wrap;html=1;fillColor=#FFFFFF;arcSize=4;" vertex="1" parent="nCHdA4UjMcVazkx-fYS6-140">
          <mxGeometry x="144" y="60" width="792" height="140" as="geometry" />
        </mxCell>
        <mxCell id="nCHdA4UjMcVazkx-fYS6-143" value="&lt;font color=&quot;#007bff&quot; style=&quot;font-size: 24px;&quot;&gt;&lt;b&gt;Blogs&lt;/b&gt;&lt;/font&gt;" style="text;html=1;align=center;verticalAlign=middle;whiteSpace=wrap;rounded=0;" vertex="1" parent="nCHdA4UjMcVazkx-fYS6-140">
          <mxGeometry width="1080" height="40" as="geometry" />
        </mxCell>
        <mxCell id="nCHdA4UjMcVazkx-fYS6-144" value="&lt;div style=&quot;font-size: 16px;&quot; class=&quot;blog-post&quot;&gt;&lt;br&gt;                &lt;h3&gt;&lt;font color=&quot;#007bff&quot; style=&quot;font-size: 20px;&quot;&gt;Understanding Data Science&lt;/font&gt;&lt;/h3&gt;                &lt;p&gt;&lt;font style=&quot;font-size: 16px;&quot;&gt;A blog post discussing the tools and skills required to excel in data science.&lt;/font&gt;&lt;/p&gt;&lt;p&gt;&lt;font color=&quot;#007bff&quot; style=&quot;font-size: 16px;&quot;&gt;Read&amp;nbsp; More&lt;br&gt;&lt;/font&gt;&lt;/p&gt;                            &lt;/div&gt;" style="text;html=1;align=center;verticalAlign=middle;whiteSpace=wrap;rounded=0;" vertex="1" parent="nCHdA4UjMcVazkx-fYS6-140">
          <mxGeometry x="216" y="60" width="648" height="120" as="geometry" />
        </mxCell>
        <mxCell id="nCHdA4UjMcVazkx-fYS6-145" value="&lt;div style=&quot;font-size: 16px;&quot; class=&quot;blog-post&quot;&gt;&lt;br style=&quot;font-size: 16px;&quot;&gt;                &lt;h3 style=&quot;font-size: 16px;&quot;&gt;&lt;font color=&quot;#007bff&quot; style=&quot;font-size: 20px;&quot;&gt;Understanding Data Science&lt;/font&gt;&lt;/h3&gt;                &lt;p style=&quot;font-size: 16px;&quot;&gt;&lt;font style=&quot;font-size: 16px;&quot;&gt;A blog post discussing the tools and skills required to excel in data science.&lt;/font&gt;&lt;/p&gt;&lt;p style=&quot;font-size: 16px;&quot;&gt;&lt;font color=&quot;#007bff&quot; style=&quot;font-size: 16px;&quot;&gt;Read&amp;nbsp; More&lt;br style=&quot;font-size: 16px;&quot;&gt;&lt;/font&gt;&lt;/p&gt;                            &lt;/div&gt;" style="text;html=1;align=center;verticalAlign=middle;whiteSpace=wrap;rounded=0;fontSize=16;spacing=0;" vertex="1" parent="nCHdA4UjMcVazkx-fYS6-140">
          <mxGeometry x="216" y="220" width="648" height="120" as="geometry" />
        </mxCell>
        <mxCell id="nCHdA4UjMcVazkx-fYS6-147" value="" style="group" vertex="1" connectable="0" parent="1">
          <mxGeometry y="2900" width="1080" height="390" as="geometry" />
        </mxCell>
        <mxCell id="nCHdA4UjMcVazkx-fYS6-157" value="" style="rounded=0;whiteSpace=wrap;html=1;" vertex="1" parent="nCHdA4UjMcVazkx-fYS6-147">
          <mxGeometry width="1080" height="440" as="geometry" />
        </mxCell>
        <mxCell id="nCHdA4UjMcVazkx-fYS6-151" value="" style="rounded=1;whiteSpace=wrap;html=1;fillColor=#f4f4f4;arcSize=4;" vertex="1" parent="nCHdA4UjMcVazkx-fYS6-147">
          <mxGeometry x="190" y="150" width="700" height="60" as="geometry" />
        </mxCell>
        <mxCell id="nCHdA4UjMcVazkx-fYS6-155" value="&lt;div style=&quot;font-size: 16px;&quot; align=&quot;left&quot;&gt;&lt;font color=&quot;#7a7a7a&quot; style=&quot;font-size: 16px;&quot;&gt;&amp;nbsp;&amp;nbsp;&amp;nbsp; Your Email&lt;/font&gt;&lt;/div&gt;" style="text;html=1;align=left;verticalAlign=middle;whiteSpace=wrap;rounded=0;" vertex="1" parent="nCHdA4UjMcVazkx-fYS6-147">
          <mxGeometry x="190" y="150" width="700" height="60" as="geometry" />
        </mxCell>
        <mxCell id="nCHdA4UjMcVazkx-fYS6-152" value="" style="rounded=1;whiteSpace=wrap;html=1;fillColor=#f4f4f4;arcSize=4;" vertex="1" parent="nCHdA4UjMcVazkx-fYS6-147">
          <mxGeometry x="190" y="70" width="700" height="60" as="geometry" />
        </mxCell>
        <mxCell id="nCHdA4UjMcVazkx-fYS6-153" value="&lt;div style=&quot;font-size: 16px;&quot; align=&quot;left&quot;&gt;&lt;font style=&quot;font-size: 16px;&quot;&gt;&lt;font color=&quot;#7a7a7a&quot;&gt;&amp;nbsp;&amp;nbsp;&amp;nbsp; Your Name&lt;/font&gt;&lt;br&gt;&lt;/font&gt;&lt;/div&gt;" style="text;html=1;align=left;verticalAlign=middle;whiteSpace=wrap;rounded=0;" vertex="1" parent="nCHdA4UjMcVazkx-fYS6-147">
          <mxGeometry x="190" y="70" width="700" height="60" as="geometry" />
        </mxCell>
        <mxCell id="nCHdA4UjMcVazkx-fYS6-148" value="" style="rounded=1;whiteSpace=wrap;html=1;fillColor=#007bff;arcSize=4;strokeColor=#FFFFFF;fontColor=#FFFFFF;" vertex="1" parent="nCHdA4UjMcVazkx-fYS6-147">
          <mxGeometry x="190" y="330" width="700" height="60" as="geometry" />
        </mxCell>
        <mxCell id="nCHdA4UjMcVazkx-fYS6-149" value="" style="rounded=1;whiteSpace=wrap;html=1;fillColor=#f4f4f4;arcSize=4;" vertex="1" parent="nCHdA4UjMcVazkx-fYS6-147">
          <mxGeometry x="190" y="230" width="700" height="80" as="geometry" />
        </mxCell>
        <mxCell id="nCHdA4UjMcVazkx-fYS6-154" value="&lt;font color=&quot;#007bff&quot; style=&quot;font-size: 24px;&quot;&gt;&lt;b&gt;Contact Me&lt;/b&gt;&lt;br&gt;&lt;/font&gt;" style="text;html=1;align=center;verticalAlign=middle;whiteSpace=wrap;rounded=0;" vertex="1" parent="nCHdA4UjMcVazkx-fYS6-147">
          <mxGeometry y="20" width="1080" height="43.333333333333336" as="geometry" />
        </mxCell>
        <mxCell id="nCHdA4UjMcVazkx-fYS6-156" value="&lt;font color=&quot;#ffffff&quot; style=&quot;font-size: 16px;&quot;&gt;Send Message&lt;br&gt;&lt;/font&gt;" style="text;html=1;align=center;verticalAlign=middle;whiteSpace=wrap;rounded=0;" vertex="1" parent="nCHdA4UjMcVazkx-fYS6-147">
          <mxGeometry x="190" y="332" width="700" height="60" as="geometry" />
        </mxCell>
        <mxCell id="nCHdA4UjMcVazkx-fYS6-150" value="&amp;nbsp;&amp;nbsp;&amp;nbsp;&amp;nbsp;&amp;nbsp; &lt;font style=&quot;font-size: 16px;&quot;&gt;&lt;font color=&quot;#7a7a7a&quot;&gt;Your Message&lt;/font&gt;&lt;br&gt;&lt;/font&gt;" style="text;html=1;align=left;verticalAlign=middle;whiteSpace=wrap;rounded=0;" vertex="1" parent="nCHdA4UjMcVazkx-fYS6-147">
          <mxGeometry x="190" y="230" width="700" height="60" as="geometry" />
        </mxCell>
        <mxCell id="nCHdA4UjMcVazkx-fYS6-158" value="" style="group" vertex="1" connectable="0" parent="1">
          <mxGeometry y="3340" width="1080" height="60" as="geometry" />
        </mxCell>
        <mxCell id="nCHdA4UjMcVazkx-fYS6-159" value="" style="rounded=0;whiteSpace=wrap;html=1;strokeColor=#333333;fillColor=#333333;" vertex="1" parent="nCHdA4UjMcVazkx-fYS6-158">
          <mxGeometry width="1080" height="60" as="geometry" />
        </mxCell>
        <mxCell id="nCHdA4UjMcVazkx-fYS6-160" value="&lt;font style=&quot;font-size: 16px;&quot;&gt;&lt;font color=&quot;#ffffff&quot;&gt;Connect&lt;/font&gt;&amp;nbsp; &lt;font color=&quot;#ffffff&quot;&gt;with me on&lt;/font&gt; &lt;font color=&quot;#5aafe8&quot;&gt;LinkedIn&lt;/font&gt; &lt;font color=&quot;#f8f9fa&quot;&gt;or &lt;/font&gt;&lt;font color=&quot;#5aafe8&quot;&gt;Email&lt;font color=&quot;#ffffff&quot;&gt;.&lt;/font&gt;&lt;/font&gt;&lt;/font&gt;" style="text;html=1;align=center;verticalAlign=middle;whiteSpace=wrap;rounded=0;" vertex="1" parent="nCHdA4UjMcVazkx-fYS6-158">
          <mxGeometry width="1080" height="60" as="geometry" />
        </mxCell>
      </root>
    </mxGraphModel>
  </diagram>
</mxfile>
